<?xml version="1.0" encoding="UTF-8" standalone="no"?>
<svg
   width="52"
   height="52"
   viewBox="0 0 24 24"
   fill="none"
   stroke="currentColor"
   stroke-width="2"
   stroke-linecap="round"
   stroke-linejoin="round"
   class="lucide lucide-brain-icon lucide-brain"
   version="1.1"
   id="svg8"
   sodipodi:docname="brain.svg"
   inkscape:version="1.3.2 (091e20e, 2023-11-25, custom)"
   xmlns:inkscape="http://www.inkscape.org/namespaces/inkscape"
   xmlns:sodipodi="http://sodipodi.sourceforge.net/DTD/sodipodi-0.dtd"
   xmlns="http://www.w3.org/2000/svg"
   xmlns:svg="http://www.w3.org/2000/svg">
  <defs
     id="defs8" />
  <sodipodi:namedview
     id="namedview8"
     pagecolor="#505050"
     bordercolor="#ffffff"
     borderopacity="1"
     inkscape:showpageshadow="0"
     inkscape:pageopacity="0"
     inkscape:pagecheckerboard="1"
     inkscape:deskcolor="#505050"
     inkscape:zoom="13.190261"
     inkscape:cx="24.449857"
     inkscape:cy="28.73332"
     inkscape:window-width="1920"
     inkscape:window-height="1057"
     inkscape:window-x="-8"
     inkscape:window-y="-8"
     inkscape:window-maximized="1"
     inkscape:current-layer="svg8" />
  <path
     d="M12 18V5"
     id="path1"
     style="stroke-width:1.99984615;stroke-dasharray:none;stroke:#ffffff;stroke-opacity:1" />
  <path
     d="M15 13a4.17 4.17 0 0 1-3-4 4.17 4.17 0 0 1-3 4"
     id="path2"
     style="stroke-width:1.99984615;stroke-dasharray:none;stroke:#ffffff;stroke-opacity:1" />
  <path
     d="M17.598 6.5A3 3 0 1 0 12 5a3 3 0 1 0-5.598 1.5"
     id="path3"
     style="stroke-width:1.99984615;stroke-dasharray:none;stroke:#ffffff;stroke-opacity:1" />
  <path
     d="M17.997 5.125a4 4 0 0 1 2.526 5.77"
     id="path4"
     style="stroke-width:1.99984615;stroke-dasharray:none;stroke:#ffffff;stroke-opacity:1" />
  <path
     d="M18 18a4 4 0 0 0 2-7.464"
     id="path5"
     style="stroke-width:1.99984615;stroke-dasharray:none;stroke:#ffffff;stroke-opacity:1" />
  <path
     d="M19.967 17.483A4 4 0 1 1 12 18a4 4 0 1 1-7.967-.517"
     id="path6"
     style="stroke-width:1.99984615;stroke-dasharray:none;stroke:#ffffff;stroke-opacity:1" />
  <path
     d="M6 18a4 4 0 0 1-2-7.464"
     id="path7"
     style="stroke-width:1.99984615;stroke-dasharray:none;stroke:#ffffff;stroke-opacity:1" />
  <path
     d="M6.003 5.125a4 4 0 0 0-2.526 5.77"
     id="path8"
     style="stroke-width:1.99984615;stroke-dasharray:none;stroke:#ffffff;stroke-opacity:1" />
</svg>
